<svg xmlns="http://www.w3.org/2000/svg" xmlns:xlink="http://www.w3.org/1999/xlink"  width="327.71875" height="17.666667938232422">
  <path fill="#434343" d="M0,0 102.25,0 92.25,8.833333969116211 102.25,17.666667938232422 0,17.666667938232422 10,8.833333969116211" ></path>
  <text fill="#FFF" x="15" y="14" font-family="monospace" font-size="15">platfrom</text>
  <path fill="#CB0000" d="M102.25,0 177.40625,0 167.40625,8.833333969116211 177.40625,17.666667938232422 102.25,17.666667938232422 112.25,8.833333969116211"></path>
  <text fill="#FFF" x="117.25" y="14" font-family="monospace" font-size="15">Linux</text>
  <path fill="#CB0000" d="M177.40625,0 270.625,0 260.625,8.833333969116211 270.625,17.666667938232422 177.40625,17.666667938232422 187.40625,8.833333969116211" ></path>
  <text fill="#FFF" x="192.40625" y="14" font-family="monospace" font-size="15">Windows</text>
  <path fill="#CB0000" d="M270.625,0 327.71875,0 317.71875,8.833333969116211 327.71875,17.666667938232422 270.625,17.666667938232422 280.625,8.833333969116211" ></path>
  <text fill="#FFF" x="285.625" y="14" font-family="monospace" font-size="15">Mac</text>
  <path fill="#CB0000" d="M327.71875,0 357.71875,0 347.71875,8.833333969116211 357.71875,17.666667938232422 327.71875,17.666667938232422 337.71875,8.833333969116211" ></path>
  <text fill="#FFF" x="342.71875" y="14" font-family="monospace" font-size="15"></text>
</svg>
