<svg xmlns="http://www.w3.org/2000/svg" xmlns:xlink="http://www.w3.org/1999/xlink" width="456" height="18" class="svg"><title>badge-for-git. Style: 17</title><desc>char-height: 18 char_width : 9 font-size  : 15</desc><path fill="#CB0000" d="M9,0 9,0 a9,9 0 0,1 0,18 L9,18 a9,9 0 0,1 0,-18"></path><text fill="#FFF" x="9" y="14" font-family="DejaVu Sans Mono, Source code variable, monospace" font-size="15"></text><path fill="#CB0000" d="M32,0 419,0 a9,9 0 0,1 0,18 L32,18 a9,9 0 0,1 0,-18"></path><text fill="#FFF" x="32" y="14" font-family="DejaVu Sans Mono, Source code variable, monospace" font-size="15">JS | HTML | CSS | AJAX | JSON | PHP | MySql</text><path fill="#CB0000" d="M442,0 442,0 a9,9 0 0,1 0,18 L442,18 a9,9 0 0,1 0,-18"></path><text fill="#FFF" x="442" y="14" font-family="DejaVu Sans Mono, Source code variable, monospace" font-size="15"></text></svg>
