<svg xmlns="http://www.w3.org/2000/svg" xmlns:xlink="http://www.w3.org/1999/xlink" width="476" height="18" class="svg"><title>badge-for-git. Style: 17</title><desc>char-height: 18 char_width : 9 font-size  : 15</desc><path fill="#CB0000" d="M9,0 9,0 a9,9 0 0,1 0,18 L9,18 a9,9 0 0,1 0,-18"></path><text fill="#FFF" x="9" y="14" font-family="DejaVu Sans Mono, Source code variable, monospace" font-size="15"></text><path fill="#CB0000" d="M32,0 32,0 a9,9 0 0,1 0,18 L32,18 a9,9 0 0,1 0,-18"></path><text fill="#FFF" x="32" y="14" font-family="DejaVu Sans Mono, Source code variable, monospace" font-size="15"></text><path fill="#CB0000" d="M55,0 55,0 a9,9 0 0,1 0,18 L55,18 a9,9 0 0,1 0,-18"></path><text fill="#FFF" x="55" y="14" font-family="DejaVu Sans Mono, Source code variable, monospace" font-size="15"></text><path fill="#CB0000" d="M78,0 393,0 a9,9 0 0,1 0,18 L78,18 a9,9 0 0,1 0,-18"></path><text fill="#FFF" x="78" y="14" font-family="DejaVu Sans Mono, Source code variable, monospace" font-size="15">JS | HTML | CSS | AJAX | JSON | PHP</text><path fill="#CB0000" d="M416,0 416,0 a9,9 0 0,1 0,18 L416,18 a9,9 0 0,1 0,-18"></path><text fill="#FFF" x="416" y="14" font-family="DejaVu Sans Mono, Source code variable, monospace" font-size="15"></text><path fill="#CB0000" d="M439,0 439,0 a9,9 0 0,1 0,18 L439,18 a9,9 0 0,1 0,-18"></path><text fill="#FFF" x="439" y="14" font-family="DejaVu Sans Mono, Source code variable, monospace" font-size="15"></text><path fill="#CB0000" d="M462,0 462,0 a9,9 0 0,1 0,18 L462,18 a9,9 0 0,1 0,-18"></path><text fill="#FFF" x="462" y="14" font-family="DejaVu Sans Mono, Source code variable, monospace" font-size="15"></text></svg>
