<svg  xmlns="http://www.w3.org/2000/svg" version="1.1" width="100%" height="50%" viewBox="0 0 100 100" preserveAspectRatio="none" >
    <polygon fill="#191919" points="0,0 10,0 10,100 0,100"></polygon>
    <polygon fill="#323232" points="10,0 20,0 20,100 10,100"></polygon>
    <polygon fill="#434343" points="20,0 30,0 30,100 20,100"></polygon>
    <polygon fill="#646464" points="30,0 40,0 40,100 30,100"></polygon>
    <polygon fill="#7D7D7D" points="40,0 50,0 50,100 40,100"></polygon>
    <polygon fill="#969696" points="50,0 60,0 60,100 50,100"></polygon>
    <polygon fill="#AFAFAF" points="60,0 70,0 70,100 60,100"></polygon>
    <polygon fill="#C8C8C8" points="70,0 80,0 80,100 70,100"></polygon>
    <polygon fill="#E1E1E1" points="80,0 90,0 90,100 80,100"></polygon>
    <polygon fill="#FFFFFF" points="90,0 100,0 100,100 90,100"></polygon>
</svg>
