<svg xmlns="http://www.w3.org/2000/svg" xmlns:xlink="http://www.w3.org/1999/xlink" width="300" height="24" class="svg"><title>badge-for-git. Style: 12</title><desc>char-height: 24 char_width : 12 font-size  : 20</desc><path fill="#00E100" d="M24,0 36,12 24,24 12,12"></path><path fill="#434343" d="M0,0 24,0 12,12 24,24 0,24 12,12"></path><text fill="#FFF" x="18" y="19" font-family="DejaVu Sans Mono, Source code variable, monospace" font-size="20"></text><path fill="#00E100" d="M276,0 288,12 276,24 264,12"></path><path fill="#434343" d="M24,0 276,0 264,12 276,24 24,24 36,12"></path><text fill="#FFF" x="42" y="19" font-family="DejaVu Sans Mono, Source code variable, monospace" font-size="20">pure-svg-animation</text><path fill="#434343" d="M276,0 300,0 288,12 300,24 276,24 288,12"></path><text fill="#FFF" x="294" y="19" font-family="DejaVu Sans Mono, Source code variable, monospace" font-size="20"></text></svg>
