<svg xmlns="http://www.w3.org/2000/svg" xmlns:xlink="http://www.w3.org/1999/xlink" width="340" height="24" class="svg"><title>badge-for-git. Style: 12</title><desc>char-height: 24 char_width : 12 font-size  : 20</desc><path fill="#00E100" d="M34,0 46,12 34,24 22,12"></path><path fill="#434343" d="M0,0 24,0 12,12 24,24 0,24 12,12"></path><text fill="#FFF" x="18" y="19" font-family="DejaVu Sans Mono, Source code variable, monospace" font-size="20"></text><path fill="#00E100" d="M306,0 318,12 306,24 294,12"></path><path fill="#434343" d="M44,0 296,0 284,12 296,24 44,24 56,12"></path><text fill="#FFF" x="62" y="19" font-family="DejaVu Sans Mono, Source code variable, monospace" font-size="20">pure-svg-animation</text><path fill="#434343" d="M316,0 340,0 328,12 340,24 316,24 328,12"></path><text fill="#FFF" x="334" y="19" font-family="DejaVu Sans Mono, Source code variable, monospace" font-size="20"></text></svg>
