<svg xmlns="http://www.w3.org/2000/svg" xmlns:xlink="http://www.w3.org/1999/xlink" width="320" height="24" class="svg"><title>badge-for-git. Style: 19</title><desc>char-height: 24 char_width : 12 font-size  : 20</desc><path fill="#00E100" d="M41,12 a12,12 0 1,0 0,0.1"></path><path fill="#434343" d="M0,0 24,0 a12,12 0 1,0 0,24 L0,24 a12,12 0 1,0 0,-24"></path><text fill="#FFF" x="18" y="19" font-family="DejaVu Sans Mono, Source code variable, monospace" font-size="20"></text><path fill="#00E100" d="M303,12 a12,12 0 1,0 0,0.1"></path><path fill="#434343" d="M34,0 286,0 a12,12 0 1,0 0,24 L34,24 a12,12 0 1,0 0,-24"></path><text fill="#FFF" x="52" y="19" font-family="DejaVu Sans Mono, Source code variable, monospace" font-size="20">pure-svg-animation</text><path fill="#434343" d="M296,0 320,0 a12,12 0 1,0 0,24 L296,24 a12,12 0 1,0 0,-24"></path><text fill="#FFF" x="314" y="19" font-family="DejaVu Sans Mono, Source code variable, monospace" font-size="20"></text></svg>
