<svg xmlns="http://www.w3.org/2000/svg" xmlns:xlink="http://www.w3.org/1999/xlink" width="288" height="24" class="svg"><title>badge-for-git. Style: 17</title><desc>char-height: 24 char_width : 12 font-size  : 20</desc><path fill="#434343" d="M12,0 12,0 a12,12 0 0,1 0,24 L12,24 a12,12 0 0,1 0,-24"></path><text fill="#FFF" x="12" y="19" font-family="DejaVu Sans Mono, Source code variable, monospace" font-size="20"></text><path fill="#434343" d="M36,0 252,0 a12,12 0 0,1 0,24 L36,24 a12,12 0 0,1 0,-24"></path><text fill="#FFF" x="36" y="19" font-family="DejaVu Sans Mono, Source code variable, monospace" font-size="20">pure-svg-animation</text><path fill="#434343" d="M276,0 276,0 a12,12 0 0,1 0,24 L276,24 a12,12 0 0,1 0,-24"></path><text fill="#FFF" x="276" y="19" font-family="DejaVu Sans Mono, Source code variable, monospace" font-size="20"></text></svg>
