<svg xmlns="http://www.w3.org/2000/svg" xmlns:xlink="http://www.w3.org/1999/xlink" width="320" height="24" class="svg"><title>badge-for-git. Style: 12</title><desc>char-height: 24 char_width : 12 font-size  : 20</desc><path fill="#00E100" d="M29,0 41,12 29,24 17,12"></path><path fill="#434343" d="M0,0 24,0 12,12 24,24 0,24 12,12"></path><text fill="#FFF" x="18" y="19" font-family="DejaVu Sans Mono, Source code variable, monospace" font-size="20"></text><path fill="#00E100" d="M291,0 303,12 291,24 279,12"></path><path fill="#434343" d="M34,0 286,0 274,12 286,24 34,24 46,12"></path><text fill="#FFF" x="52" y="19" font-family="DejaVu Sans Mono, Source code variable, monospace" font-size="20">pure-svg-animation</text><path fill="#434343" d="M296,0 320,0 308,12 320,24 296,24 308,12"></path><text fill="#FFF" x="314" y="19" font-family="DejaVu Sans Mono, Source code variable, monospace" font-size="20"></text></svg>
