<svg xmlns="http://www.w3.org/2000/svg" xmlns:xlink="http://www.w3.org/1999/xlink" width="904.6875" height="11" class="svg"><title>badge-for-git. Style: 17</title><desc>char-height: 11 char_width : 6.03125 font-size  : 10</desc><path fill="#434343" d="M5.5,0 6.5625,0 a5.5,5.5 0 0,1 0,11 L6.03125,11 a5.5,5.5 0 0,1 0,-11"></path><text fill="#FFF" x="6.03125" y="9" font-family="monospace" font-size="10"></text><path fill="#CB0000" d="M17.5625,0 18.625,0 a5.5,5.5 0 0,1 0,11 L18.09375,11 a5.5,5.5 0 0,1 0,-11"></path><text fill="#FFF" x="18.09375" y="9" font-family="monospace" font-size="10"></text><path fill="#CB0000" d="M29.625,0 30.6875,0 a5.5,5.5 0 0,1 0,11 L30.15625,11 a5.5,5.5 0 0,1 0,-11"></path><text fill="#FFF" x="30.15625" y="9" font-family="monospace" font-size="10"></text><path fill="#CB0000" d="M41.6875,0 42.75,0 a5.5,5.5 0 0,1 0,11 L42.21875,11 a5.5,5.5 0 0,1 0,-11"></path><text fill="#FFF" x="42.21875" y="9" font-family="monospace" font-size="10"></text><path fill="#CB0000" d="M53.75,0 54.8125,0 a5.5,5.5 0 0,1 0,11 L54.28125,11 a5.5,5.5 0 0,1 0,-11"></path><text fill="#FFF" x="54.28125" y="9" font-family="monospace" font-size="10"></text><path fill="#CB0000" d="M65.8125,0 66.875,0 a5.5,5.5 0 0,1 0,11 L66.34375,11 a5.5,5.5 0 0,1 0,-11"></path><text fill="#FFF" x="66.34375" y="9" font-family="monospace" font-size="10"></text><path fill="#CB0000" d="M77.875,0 78.9375,0 a5.5,5.5 0 0,1 0,11 L78.40625,11 a5.5,5.5 0 0,1 0,-11"></path><text fill="#FFF" x="78.40625" y="9" font-family="monospace" font-size="10"></text><path fill="#CB0000" d="M89.9375,0 91,0 a5.5,5.5 0 0,1 0,11 L90.46875,11 a5.5,5.5 0 0,1 0,-11"></path><text fill="#FFF" x="90.46875" y="9" font-family="monospace" font-size="10"></text><path fill="#CB0000" d="M102,0 103.0625,0 a5.5,5.5 0 0,1 0,11 L102.53125,11 a5.5,5.5 0 0,1 0,-11"></path><text fill="#FFF" x="102.53125" y="9" font-family="monospace" font-size="10"></text><path fill="#CB0000" d="M114.0625,0 115.125,0 a5.5,5.5 0 0,1 0,11 L114.59375,11 a5.5,5.5 0 0,1 0,-11"></path><text fill="#FFF" x="114.59375" y="9" font-family="monospace" font-size="10"></text><path fill="#CB0000" d="M126.125,0 127.1875,0 a5.5,5.5 0 0,1 0,11 L126.65625,11 a5.5,5.5 0 0,1 0,-11"></path><text fill="#FFF" x="126.65625" y="9" font-family="monospace" font-size="10"></text><path fill="#CB0000" d="M138.1875,0 139.25,0 a5.5,5.5 0 0,1 0,11 L138.71875,11 a5.5,5.5 0 0,1 0,-11"></path><text fill="#FFF" x="138.71875" y="9" font-family="monospace" font-size="10"></text><path fill="#CB0000" d="M150.25,0 151.3125,0 a5.5,5.5 0 0,1 0,11 L150.78125,11 a5.5,5.5 0 0,1 0,-11"></path><text fill="#FFF" x="150.78125" y="9" font-family="monospace" font-size="10"></text><path fill="#CB0000" d="M162.3125,0 163.375,0 a5.5,5.5 0 0,1 0,11 L162.84375,11 a5.5,5.5 0 0,1 0,-11"></path><text fill="#FFF" x="162.84375" y="9" font-family="monospace" font-size="10"></text><path fill="#CB0000" d="M174.375,0 175.4375,0 a5.5,5.5 0 0,1 0,11 L174.90625,11 a5.5,5.5 0 0,1 0,-11"></path><text fill="#FFF" x="174.90625" y="9" font-family="monospace" font-size="10"></text><path fill="#CB0000" d="M186.4375,0 187.5,0 a5.5,5.5 0 0,1 0,11 L186.96875,11 a5.5,5.5 0 0,1 0,-11"></path><text fill="#FFF" x="186.96875" y="9" font-family="monospace" font-size="10"></text><path fill="#CB0000" d="M198.5,0 199.5625,0 a5.5,5.5 0 0,1 0,11 L199.03125,11 a5.5,5.5 0 0,1 0,-11"></path><text fill="#FFF" x="199.03125" y="9" font-family="monospace" font-size="10"></text><path fill="#CB0000" d="M210.5625,0 211.625,0 a5.5,5.5 0 0,1 0,11 L211.09375,11 a5.5,5.5 0 0,1 0,-11"></path><text fill="#FFF" x="211.09375" y="9" font-family="monospace" font-size="10"></text><path fill="#CB0000" d="M222.625,0 223.6875,0 a5.5,5.5 0 0,1 0,11 L223.15625,11 a5.5,5.5 0 0,1 0,-11"></path><text fill="#FFF" x="223.15625" y="9" font-family="monospace" font-size="10"></text><path fill="#CB0000" d="M234.6875,0 235.75,0 a5.5,5.5 0 0,1 0,11 L235.21875,11 a5.5,5.5 0 0,1 0,-11"></path><text fill="#FFF" x="235.21875" y="9" font-family="monospace" font-size="10"></text><path fill="#CB0000" d="M246.75,0 247.8125,0 a5.5,5.5 0 0,1 0,11 L247.28125,11 a5.5,5.5 0 0,1 0,-11"></path><text fill="#FFF" x="247.28125" y="9" font-family="monospace" font-size="10"></text><path fill="#CB0000" d="M258.8125,0 259.875,0 a5.5,5.5 0 0,1 0,11 L259.34375,11 a5.5,5.5 0 0,1 0,-11"></path><text fill="#FFF" x="259.34375" y="9" font-family="monospace" font-size="10"></text><path fill="#CB0000" d="M270.875,0 271.9375,0 a5.5,5.5 0 0,1 0,11 L271.40625,11 a5.5,5.5 0 0,1 0,-11"></path><text fill="#FFF" x="271.40625" y="9" font-family="monospace" font-size="10"></text><path fill="#CB0000" d="M282.9375,0 284,0 a5.5,5.5 0 0,1 0,11 L283.46875,11 a5.5,5.5 0 0,1 0,-11"></path><text fill="#FFF" x="283.46875" y="9" font-family="monospace" font-size="10"></text><path fill="#CB0000" d="M295,0 296.0625,0 a5.5,5.5 0 0,1 0,11 L295.53125,11 a5.5,5.5 0 0,1 0,-11"></path><text fill="#FFF" x="295.53125" y="9" font-family="monospace" font-size="10"></text><path fill="#CB0000" d="M307.0625,0 308.125,0 a5.5,5.5 0 0,1 0,11 L307.59375,11 a5.5,5.5 0 0,1 0,-11"></path><text fill="#FFF" x="307.59375" y="9" font-family="monospace" font-size="10"></text><path fill="#CB0000" d="M319.125,0 320.1875,0 a5.5,5.5 0 0,1 0,11 L319.65625,11 a5.5,5.5 0 0,1 0,-11"></path><text fill="#FFF" x="319.65625" y="9" font-family="monospace" font-size="10"></text><path fill="#CB0000" d="M331.1875,0 332.25,0 a5.5,5.5 0 0,1 0,11 L331.71875,11 a5.5,5.5 0 0,1 0,-11"></path><text fill="#FFF" x="331.71875" y="9" font-family="monospace" font-size="10"></text><path fill="#CB0000" d="M343.25,0 344.3125,0 a5.5,5.5 0 0,1 0,11 L343.78125,11 a5.5,5.5 0 0,1 0,-11"></path><text fill="#FFF" x="343.78125" y="9" font-family="monospace" font-size="10"></text><path fill="#CB0000" d="M355.3125,0 356.375,0 a5.5,5.5 0 0,1 0,11 L355.84375,11 a5.5,5.5 0 0,1 0,-11"></path><text fill="#FFF" x="355.84375" y="9" font-family="monospace" font-size="10"></text><path fill="#CB0000" d="M367.375,0 368.4375,0 a5.5,5.5 0 0,1 0,11 L367.90625,11 a5.5,5.5 0 0,1 0,-11"></path><text fill="#FFF" x="367.90625" y="9" font-family="monospace" font-size="10"></text><path fill="#CB0000" d="M379.4375,0 380.5,0 a5.5,5.5 0 0,1 0,11 L379.96875,11 a5.5,5.5 0 0,1 0,-11"></path><text fill="#FFF" x="379.96875" y="9" font-family="monospace" font-size="10"></text><path fill="#CB0000" d="M391.5,0 392.5625,0 a5.5,5.5 0 0,1 0,11 L392.03125,11 a5.5,5.5 0 0,1 0,-11"></path><text fill="#FFF" x="392.03125" y="9" font-family="monospace" font-size="10"></text><path fill="#CB0000" d="M403.5625,0 404.625,0 a5.5,5.5 0 0,1 0,11 L404.09375,11 a5.5,5.5 0 0,1 0,-11"></path><text fill="#FFF" x="404.09375" y="9" font-family="monospace" font-size="10"></text><path fill="#CB0000" d="M415.625,0 416.6875,0 a5.5,5.5 0 0,1 0,11 L416.15625,11 a5.5,5.5 0 0,1 0,-11"></path><text fill="#FFF" x="416.15625" y="9" font-family="monospace" font-size="10"></text><path fill="#CB0000" d="M427.6875,0 428.75,0 a5.5,5.5 0 0,1 0,11 L428.21875,11 a5.5,5.5 0 0,1 0,-11"></path><text fill="#FFF" x="428.21875" y="9" font-family="monospace" font-size="10"></text><path fill="#CB0000" d="M439.75,0 440.8125,0 a5.5,5.5 0 0,1 0,11 L440.28125,11 a5.5,5.5 0 0,1 0,-11"></path><text fill="#FFF" x="440.28125" y="9" font-family="monospace" font-size="10"></text><path fill="#CB0000" d="M451.8125,0 452.875,0 a5.5,5.5 0 0,1 0,11 L452.34375,11 a5.5,5.5 0 0,1 0,-11"></path><text fill="#FFF" x="452.34375" y="9" font-family="monospace" font-size="10"></text><path fill="#CB0000" d="M463.875,0 464.9375,0 a5.5,5.5 0 0,1 0,11 L464.40625,11 a5.5,5.5 0 0,1 0,-11"></path><text fill="#FFF" x="464.40625" y="9" font-family="monospace" font-size="10"></text><path fill="#CB0000" d="M475.9375,0 477,0 a5.5,5.5 0 0,1 0,11 L476.46875,11 a5.5,5.5 0 0,1 0,-11"></path><text fill="#FFF" x="476.46875" y="9" font-family="monospace" font-size="10"></text><path fill="#CB0000" d="M488,0 489.0625,0 a5.5,5.5 0 0,1 0,11 L488.53125,11 a5.5,5.5 0 0,1 0,-11"></path><text fill="#FFF" x="488.53125" y="9" font-family="monospace" font-size="10"></text><path fill="#CB0000" d="M500.0625,0 501.125,0 a5.5,5.5 0 0,1 0,11 L500.59375,11 a5.5,5.5 0 0,1 0,-11"></path><text fill="#FFF" x="500.59375" y="9" font-family="monospace" font-size="10"></text><path fill="#CB0000" d="M512.125,0 513.1875,0 a5.5,5.5 0 0,1 0,11 L512.65625,11 a5.5,5.5 0 0,1 0,-11"></path><text fill="#FFF" x="512.65625" y="9" font-family="monospace" font-size="10"></text><path fill="#CB0000" d="M524.1875,0 525.25,0 a5.5,5.5 0 0,1 0,11 L524.71875,11 a5.5,5.5 0 0,1 0,-11"></path><text fill="#FFF" x="524.71875" y="9" font-family="monospace" font-size="10"></text><path fill="#CB0000" d="M536.25,0 537.3125,0 a5.5,5.5 0 0,1 0,11 L536.78125,11 a5.5,5.5 0 0,1 0,-11"></path><text fill="#FFF" x="536.78125" y="9" font-family="monospace" font-size="10"></text><path fill="#CB0000" d="M548.3125,0 549.375,0 a5.5,5.5 0 0,1 0,11 L548.84375,11 a5.5,5.5 0 0,1 0,-11"></path><text fill="#FFF" x="548.84375" y="9" font-family="monospace" font-size="10"></text><path fill="#CB0000" d="M560.375,0 561.4375,0 a5.5,5.5 0 0,1 0,11 L560.90625,11 a5.5,5.5 0 0,1 0,-11"></path><text fill="#FFF" x="560.90625" y="9" font-family="monospace" font-size="10"></text><path fill="#CB0000" d="M572.4375,0 573.5,0 a5.5,5.5 0 0,1 0,11 L572.96875,11 a5.5,5.5 0 0,1 0,-11"></path><text fill="#FFF" x="572.96875" y="9" font-family="monospace" font-size="10"></text><path fill="#CB0000" d="M584.5,0 585.5625,0 a5.5,5.5 0 0,1 0,11 L585.03125,11 a5.5,5.5 0 0,1 0,-11"></path><text fill="#FFF" x="585.03125" y="9" font-family="monospace" font-size="10"></text><path fill="#CB0000" d="M596.5625,0 597.625,0 a5.5,5.5 0 0,1 0,11 L597.09375,11 a5.5,5.5 0 0,1 0,-11"></path><text fill="#FFF" x="597.09375" y="9" font-family="monospace" font-size="10"></text><path fill="#CB0000" d="M608.625,0 609.6875,0 a5.5,5.5 0 0,1 0,11 L609.15625,11 a5.5,5.5 0 0,1 0,-11"></path><text fill="#FFF" x="609.15625" y="9" font-family="monospace" font-size="10"></text><path fill="#CB0000" d="M620.6875,0 621.75,0 a5.5,5.5 0 0,1 0,11 L621.21875,11 a5.5,5.5 0 0,1 0,-11"></path><text fill="#FFF" x="621.21875" y="9" font-family="monospace" font-size="10"></text><path fill="#CB0000" d="M632.75,0 633.8125,0 a5.5,5.5 0 0,1 0,11 L633.28125,11 a5.5,5.5 0 0,1 0,-11"></path><text fill="#FFF" x="633.28125" y="9" font-family="monospace" font-size="10"></text><path fill="#CB0000" d="M644.8125,0 645.875,0 a5.5,5.5 0 0,1 0,11 L645.34375,11 a5.5,5.5 0 0,1 0,-11"></path><text fill="#FFF" x="645.34375" y="9" font-family="monospace" font-size="10"></text><path fill="#CB0000" d="M656.875,0 657.9375,0 a5.5,5.5 0 0,1 0,11 L657.40625,11 a5.5,5.5 0 0,1 0,-11"></path><text fill="#FFF" x="657.40625" y="9" font-family="monospace" font-size="10"></text><path fill="#CB0000" d="M668.9375,0 670,0 a5.5,5.5 0 0,1 0,11 L669.46875,11 a5.5,5.5 0 0,1 0,-11"></path><text fill="#FFF" x="669.46875" y="9" font-family="monospace" font-size="10"></text><path fill="#CB0000" d="M681,0 682.0625,0 a5.5,5.5 0 0,1 0,11 L681.53125,11 a5.5,5.5 0 0,1 0,-11"></path><text fill="#FFF" x="681.53125" y="9" font-family="monospace" font-size="10"></text><path fill="#CB0000" d="M693.0625,0 694.125,0 a5.5,5.5 0 0,1 0,11 L693.59375,11 a5.5,5.5 0 0,1 0,-11"></path><text fill="#FFF" x="693.59375" y="9" font-family="monospace" font-size="10"></text><path fill="#CB0000" d="M705.125,0 706.1875,0 a5.5,5.5 0 0,1 0,11 L705.65625,11 a5.5,5.5 0 0,1 0,-11"></path><text fill="#FFF" x="705.65625" y="9" font-family="monospace" font-size="10"></text><path fill="#CB0000" d="M717.1875,0 718.25,0 a5.5,5.5 0 0,1 0,11 L717.71875,11 a5.5,5.5 0 0,1 0,-11"></path><text fill="#FFF" x="717.71875" y="9" font-family="monospace" font-size="10"></text><path fill="#CB0000" d="M729.25,0 730.3125,0 a5.5,5.5 0 0,1 0,11 L729.78125,11 a5.5,5.5 0 0,1 0,-11"></path><text fill="#FFF" x="729.78125" y="9" font-family="monospace" font-size="10"></text><path fill="#CB0000" d="M741.3125,0 742.375,0 a5.5,5.5 0 0,1 0,11 L741.84375,11 a5.5,5.5 0 0,1 0,-11"></path><text fill="#FFF" x="741.84375" y="9" font-family="monospace" font-size="10"></text><path fill="#CB0000" d="M753.375,0 754.4375,0 a5.5,5.5 0 0,1 0,11 L753.90625,11 a5.5,5.5 0 0,1 0,-11"></path><text fill="#FFF" x="753.90625" y="9" font-family="monospace" font-size="10"></text><path fill="#CB0000" d="M765.4375,0 766.5,0 a5.5,5.5 0 0,1 0,11 L765.96875,11 a5.5,5.5 0 0,1 0,-11"></path><text fill="#FFF" x="765.96875" y="9" font-family="monospace" font-size="10"></text><path fill="#CB0000" d="M777.5,0 778.5625,0 a5.5,5.5 0 0,1 0,11 L778.03125,11 a5.5,5.5 0 0,1 0,-11"></path><text fill="#FFF" x="778.03125" y="9" font-family="monospace" font-size="10"></text><path fill="#CB0000" d="M789.5625,0 790.625,0 a5.5,5.5 0 0,1 0,11 L790.09375,11 a5.5,5.5 0 0,1 0,-11"></path><text fill="#FFF" x="790.09375" y="9" font-family="monospace" font-size="10"></text><path fill="#CB0000" d="M801.625,0 802.6875,0 a5.5,5.5 0 0,1 0,11 L802.15625,11 a5.5,5.5 0 0,1 0,-11"></path><text fill="#FFF" x="802.15625" y="9" font-family="monospace" font-size="10"></text><path fill="#CB0000" d="M813.6875,0 814.75,0 a5.5,5.5 0 0,1 0,11 L814.21875,11 a5.5,5.5 0 0,1 0,-11"></path><text fill="#FFF" x="814.21875" y="9" font-family="monospace" font-size="10"></text><path fill="#CB0000" d="M825.75,0 826.8125,0 a5.5,5.5 0 0,1 0,11 L826.28125,11 a5.5,5.5 0 0,1 0,-11"></path><text fill="#FFF" x="826.28125" y="9" font-family="monospace" font-size="10"></text><path fill="#CB0000" d="M837.8125,0 838.875,0 a5.5,5.5 0 0,1 0,11 L838.34375,11 a5.5,5.5 0 0,1 0,-11"></path><text fill="#FFF" x="838.34375" y="9" font-family="monospace" font-size="10"></text><path fill="#CB0000" d="M849.875,0 850.9375,0 a5.5,5.5 0 0,1 0,11 L850.40625,11 a5.5,5.5 0 0,1 0,-11"></path><text fill="#FFF" x="850.40625" y="9" font-family="monospace" font-size="10"></text><path fill="#CB0000" d="M861.9375,0 863,0 a5.5,5.5 0 0,1 0,11 L862.46875,11 a5.5,5.5 0 0,1 0,-11"></path><text fill="#FFF" x="862.46875" y="9" font-family="monospace" font-size="10"></text><path fill="#CB0000" d="M874,0 875.0625,0 a5.5,5.5 0 0,1 0,11 L874.53125,11 a5.5,5.5 0 0,1 0,-11"></path><text fill="#FFF" x="874.53125" y="9" font-family="monospace" font-size="10"></text><path fill="#CB0000" d="M886.0625,0 887.125,0 a5.5,5.5 0 0,1 0,11 L886.59375,11 a5.5,5.5 0 0,1 0,-11"></path><text fill="#FFF" x="886.59375" y="9" font-family="monospace" font-size="10"></text><path fill="#CB0000" d="M898.125,0 899.1875,0 a5.5,5.5 0 0,1 0,11 L898.65625,11 a5.5,5.5 0 0,1 0,-11"></path><text fill="#FFF" x="898.65625" y="9" font-family="monospace" font-size="10"></text></svg>
