<svg xmlns="http://www.w3.org/2000/svg" xmlns:xlink="http://www.w3.org/1999/xlink" width="900" height="18" class="svg"><title>badge-for-git. (line) Style: 4</title><desc>char-height: 18 char_width : 9 font-size  : 15</desc><path fill="#CB0000" d=" m9,0 9,9 -9,9-9,-9 m27,-9 9,9 -9,9-9,-9 m27,-9 9,9 -9,9-9,-9 m27,-9 9,9 -9,9-9,-9 m27,-9 9,9 -9,9-9,-9 m27,-9 9,9 -9,9-9,-9 m27,-9 9,9 -9,9-9,-9 m27,-9 9,9 -9,9-9,-9 m27,-9 9,9 -9,9-9,-9 m27,-9 9,9 -9,9-9,-9 m27,-9 9,9 -9,9-9,-9 m27,-9 9,9 -9,9-9,-9 m27,-9 9,9 -9,9-9,-9 m27,-9 9,9 -9,9-9,-9 m27,-9 9,9 -9,9-9,-9 m27,-9 9,9 -9,9-9,-9 m27,-9 9,9 -9,9-9,-9 m27,-9 9,9 -9,9-9,-9 m27,-9 9,9 -9,9-9,-9 m27,-9 9,9 -9,9-9,-9 m27,-9 9,9 -9,9-9,-9 m27,-9 9,9 -9,9-9,-9 m27,-9 9,9 -9,9-9,-9 m27,-9 9,9 -9,9-9,-9 m27,-9 9,9 -9,9-9,-9 m27,-9 9,9 -9,9-9,-9 m27,-9 9,9 -9,9-9,-9 m27,-9 9,9 -9,9-9,-9 m27,-9 9,9 -9,9-9,-9 m27,-9 9,9 -9,9-9,-9 m27,-9 9,9 -9,9-9,-9 m27,-9 9,9 -9,9-9,-9 m27,-9 9,9 -9,9-9,-9 m27,-9 9,9 -9,9-9,-9 m27,-9 9,9 -9,9-9,-9 m27,-9 9,9 -9,9-9,-9 m27,-9 9,9 -9,9-9,-9 m27,-9 9,9 -9,9-9,-9 m27,-9 9,9 -9,9-9,-9 m27,-9 9,9 -9,9-9,-9 m27,-9 9,9 -9,9-9,-9 m27,-9 9,9 -9,9-9,-9 m27,-9 9,9 -9,9-9,-9 m27,-9 9,9 -9,9-9,-9 m27,-9 9,9 -9,9-9,-9 m27,-9 9,9 -9,9-9,-9 m27,-9 9,9 -9,9-9,-9 m27,-9 9,9 -9,9-9,-9 m27,-9 9,9 -9,9-9,-9 m27,-9 9,9 -9,9-9,-9"></path></svg>
