<svg xmlns="http://www.w3.org/2000/svg" xmlns:xlink="http://www.w3.org/1999/xlink" width="990" height="11" class="svg"><title>badge-for-git. Style: undefined</title><desc>char-height: 11 char_width : 6 font-size  : 10</desc><path fill="#C80000" d="m0,5.5 a5.5,5.5 0 1,1 0,0.01 m11,0 a5.5,5.5 0 1,1 0,0.01 m11,0 a5.5,5.5 0 1,1 0,0.01 m11,0 a5.5,5.5 0 1,1 0,0.01 m11,0 a5.5,5.5 0 1,1 0,0.01 m11,0 a5.5,5.5 0 1,1 0,0.01 m11,0 a5.5,5.5 0 1,1 0,0.01 m11,0 a5.5,5.5 0 1,1 0,0.01 m11,0 a5.5,5.5 0 1,1 0,0.01 m11,0 a5.5,5.5 0 1,1 0,0.01 m11,0 a5.5,5.5 0 1,1 0,0.01 m11,0 a5.5,5.5 0 1,1 0,0.01 m11,0 a5.5,5.5 0 1,1 0,0.01 m11,0 a5.5,5.5 0 1,1 0,0.01 m11,0 a5.5,5.5 0 1,1 0,0.01 m11,0 a5.5,5.5 0 1,1 0,0.01 m11,0 a5.5,5.5 0 1,1 0,0.01 m11,0 a5.5,5.5 0 1,1 0,0.01 m11,0 a5.5,5.5 0 1,1 0,0.01 m11,0 a5.5,5.5 0 1,1 0,0.01 m11,0 a5.5,5.5 0 1,1 0,0.01 m11,0 a5.5,5.5 0 1,1 0,0.01 m11,0 a5.5,5.5 0 1,1 0,0.01 m11,0 a5.5,5.5 0 1,1 0,0.01 m11,0 a5.5,5.5 0 1,1 0,0.01 m11,0 a5.5,5.5 0 1,1 0,0.01 m11,0 a5.5,5.5 0 1,1 0,0.01 m11,0 a5.5,5.5 0 1,1 0,0.01 m11,0 a5.5,5.5 0 1,1 0,0.01 m11,0 a5.5,5.5 0 1,1 0,0.01 m11,0 a5.5,5.5 0 1,1 0,0.01 m11,0 a5.5,5.5 0 1,1 0,0.01 m11,0 a5.5,5.5 0 1,1 0,0.01 m11,0 a5.5,5.5 0 1,1 0,0.01 m11,0 a5.5,5.5 0 1,1 0,0.01 m11,0 a5.5,5.5 0 1,1 0,0.01 m11,0 a5.5,5.5 0 1,1 0,0.01 m11,0 a5.5,5.5 0 1,1 0,0.01 m11,0 a5.5,5.5 0 1,1 0,0.01 m11,0 a5.5,5.5 0 1,1 0,0.01 m11,0 a5.5,5.5 0 1,1 0,0.01 m11,0 a5.5,5.5 0 1,1 0,0.01 m11,0 a5.5,5.5 0 1,1 0,0.01 m11,0 a5.5,5.5 0 1,1 0,0.01 m11,0 a5.5,5.5 0 1,1 0,0.01 m11,0 a5.5,5.5 0 1,1 0,0.01 m11,0 a5.5,5.5 0 1,1 0,0.01 m11,0 a5.5,5.5 0 1,1 0,0.01 m11,0 a5.5,5.5 0 1,1 0,0.01 m11,0 a5.5,5.5 0 1,1 0,0.01 m11,0 a5.5,5.5 0 1,1 0,0.01 m11,0 a5.5,5.5 0 1,1 0,0.01 m11,0 a5.5,5.5 0 1,1 0,0.01 m11,0 a5.5,5.5 0 1,1 0,0.01 m11,0 a5.5,5.5 0 1,1 0,0.01 m11,0 a5.5,5.5 0 1,1 0,0.01 m11,0 a5.5,5.5 0 1,1 0,0.01 m11,0 a5.5,5.5 0 1,1 0,0.01 m11,0 a5.5,5.5 0 1,1 0,0.01 m11,0 a5.5,5.5 0 1,1 0,0.01 m11,0 a5.5,5.5 0 1,1 0,0.01 m11,0 a5.5,5.5 0 1,1 0,0.01 m11,0 a5.5,5.5 0 1,1 0,0.01 m11,0 a5.5,5.5 0 1,1 0,0.01 m11,0 a5.5,5.5 0 1,1 0,0.01 m11,0 a5.5,5.5 0 1,1 0,0.01 m11,0 a5.5,5.5 0 1,1 0,0.01 m11,0 a5.5,5.5 0 1,1 0,0.01 m11,0 a5.5,5.5 0 1,1 0,0.01 m11,0 a5.5,5.5 0 1,1 0,0.01 m11,0 a5.5,5.5 0 1,1 0,0.01 m11,0 a5.5,5.5 0 1,1 0,0.01 m11,0 a5.5,5.5 0 1,1 0,0.01 m11,0 a5.5,5.5 0 1,1 0,0.01 m11,0 a5.5,5.5 0 1,1 0,0.01 m11,0 a5.5,5.5 0 1,1 0,0.01 m11,0 a5.5,5.5 0 1,1 0,0.01 m11,0 a5.5,5.5 0 1,1 0,0.01 m11,0 a5.5,5.5 0 1,1 0,0.01 m11,0 a5.5,5.5 0 1,1 0,0.01 m11,0 a5.5,5.5 0 1,1 0,0.01 m11,0 a5.5,5.5 0 1,1 0,0.01 m11,0 a5.5,5.5 0 1,1 0,0.01 m11,0 a5.5,5.5 0 1,1 0,0.01 m11,0 a5.5,5.5 0 1,1 0,0.01 m11,0 a5.5,5.5 0 1,1 0,0.01 m11,0 a5.5,5.5 0 1,1 0,0.01 m11,0 a5.5,5.5 0 1,1 0,0.01 m11,0 a5.5,5.5 0 1,1 0,0.01 m11,0 a5.5,5.5 0 1,1 0,0.01 "></path></svg>
