<svg xmlns="http://www.w3.org/2000/svg" xmlns:xlink="http://www.w3.org/1999/xlink" width="872" height="11" class="svg"><title>badge-for-git. (line) Style: 4</title><desc>char-height: 11 char_width : 6 font-size  : 10</desc><path fill="#80F" d=" m5.5,0 5.5,5.5 -5.5,5.5-5.5,-5.5 m26.5,-5.5 5.5,5.5 -5.5,5.5-5.5,-5.5 m26.5,-5.5 5.5,5.5 -5.5,5.5-5.5,-5.5 m26.5,-5.5 5.5,5.5 -5.5,5.5-5.5,-5.5 m26.5,-5.5 5.5,5.5 -5.5,5.5-5.5,-5.5 m26.5,-5.5 5.5,5.5 -5.5,5.5-5.5,-5.5 m26.5,-5.5 5.5,5.5 -5.5,5.5-5.5,-5.5 m26.5,-5.5 5.5,5.5 -5.5,5.5-5.5,-5.5 m26.5,-5.5 5.5,5.5 -5.5,5.5-5.5,-5.5 m26.5,-5.5 5.5,5.5 -5.5,5.5-5.5,-5.5 m26.5,-5.5 5.5,5.5 -5.5,5.5-5.5,-5.5 m26.5,-5.5 5.5,5.5 -5.5,5.5-5.5,-5.5 m26.5,-5.5 5.5,5.5 -5.5,5.5-5.5,-5.5 m26.5,-5.5 5.5,5.5 -5.5,5.5-5.5,-5.5 m26.5,-5.5 5.5,5.5 -5.5,5.5-5.5,-5.5 m26.5,-5.5 5.5,5.5 -5.5,5.5-5.5,-5.5 m26.5,-5.5 5.5,5.5 -5.5,5.5-5.5,-5.5 m26.5,-5.5 5.5,5.5 -5.5,5.5-5.5,-5.5 m26.5,-5.5 5.5,5.5 -5.5,5.5-5.5,-5.5 m26.5,-5.5 5.5,5.5 -5.5,5.5-5.5,-5.5 m26.5,-5.5 5.5,5.5 -5.5,5.5-5.5,-5.5 m26.5,-5.5 5.5,5.5 -5.5,5.5-5.5,-5.5 m26.5,-5.5 5.5,5.5 -5.5,5.5-5.5,-5.5 m26.5,-5.5 5.5,5.5 -5.5,5.5-5.5,-5.5 m26.5,-5.5 5.5,5.5 -5.5,5.5-5.5,-5.5 m26.5,-5.5 5.5,5.5 -5.5,5.5-5.5,-5.5 m26.5,-5.5 5.5,5.5 -5.5,5.5-5.5,-5.5 m26.5,-5.5 5.5,5.5 -5.5,5.5-5.5,-5.5 m26.5,-5.5 5.5,5.5 -5.5,5.5-5.5,-5.5 m26.5,-5.5 5.5,5.5 -5.5,5.5-5.5,-5.5 m26.5,-5.5 5.5,5.5 -5.5,5.5-5.5,-5.5 m26.5,-5.5 5.5,5.5 -5.5,5.5-5.5,-5.5 m26.5,-5.5 5.5,5.5 -5.5,5.5-5.5,-5.5 m26.5,-5.5 5.5,5.5 -5.5,5.5-5.5,-5.5 m26.5,-5.5 5.5,5.5 -5.5,5.5-5.5,-5.5 m26.5,-5.5 5.5,5.5 -5.5,5.5-5.5,-5.5 m26.5,-5.5 5.5,5.5 -5.5,5.5-5.5,-5.5 m26.5,-5.5 5.5,5.5 -5.5,5.5-5.5,-5.5 m26.5,-5.5 5.5,5.5 -5.5,5.5-5.5,-5.5 m26.5,-5.5 5.5,5.5 -5.5,5.5-5.5,-5.5 m26.5,-5.5 5.5,5.5 -5.5,5.5-5.5,-5.5 m26.5,-5.5 5.5,5.5 -5.5,5.5-5.5,-5.5"></path></svg>
