<svg version="1.1" xmlns="http://www.w3.org/2000/svg" xmlns:xlink="http://www.w3.org/1999/xlink" viewBox="0 0 900 500" width="900" height="500" >
    <image xlink:href="phonescape-result.png" x="300" y="0" width="300" height="500"></image>
    <g>
        <text x="100" y="460">menu</text>
        <path fill="none" stroke="#CCC" stroke-width="2" d="M100,470 h250 a2,2 0 1,1 0,1z"></path>
        
        <text x="760" y="460">icon-01</text>
        <path fill="none" stroke="#CCC" stroke-width="2" d="M800,470  h-350 a2,2 0 1,1 0,1z"></path>
        
        <text x="10" y="350">app-01, background-color: transparent</text>
        <path fill="none" stroke="#CCC" stroke-width="2" d="M10,360  h440 a2,2 0 1,1 0,1z"></path>
        
        <text x="630" y="250">div#screen, background-image: file.svg</text>
        <path fill="none" stroke="#CCC" stroke-width="2" d="M880,260  h-440 a2,2 0 1,1 0,1z"></path>
        
        <text x="10" y="100">icon-02 for app-02</text>
        <path fill="none" stroke="#CCC" stroke-width="2" d="M10,110  h360 a2,2 0 1,1 0,1z"></path>
        
    </g>
    
    <defs>
        <pattern id="viewport" x="0" y="0" width="5.55%" height="20%"> 
         <path fill="#E1E1E1" stroke="none"  d="M-50,50 a50,50 0 1,1 0,1z" /> 
       </pattern> 
       <pattern id="grid10" x="0" y="0" width="11.11%" height="20%"> 
         <path fill="none" stroke="#000" stroke-width="3" d="M0,100 100,100 100,0" /> 
       </pattern> 
     </defs> 
     <defs> 
       <pattern id="grid24" x="0" y="0" width="5.56%" height="10%"> 
         <path fill="none" stroke="#F00" stroke-width="1" d="M0,50 50,50 50,0" /> 
       </pattern> 
     </defs> 
<!--     <rect  x="0" y="0" width="900" height="500" fill="url(#grid24)"></rect> -->
<!--     <rect  x="0" y="0" width="900" height="500" fill="url(#grid10)"></rect>-->
    
    <style type="text/css" ><![CDATA[
    ]]></style>
</svg>

