<svg xmlns="http://www.w3.org/2000/svg" xmlns:xlink="http://www.w3.org/1999/xlink" width="261.90625" height="18" class="svg"><title>badge-for-git. Style: 17</title><desc>char-height: 18 char_width : 9.03125 font-size  : 15</desc><path fill="#434343" d="M9,0 36.15625,0 a9,9 0 0,1 0,18 L9.03125,18 a9,9 0 0,1 0,-18"></path><text fill="#FF0" x="9.03125" y="14" font-family="monospace" font-size="15">one</text><path fill="#CB0000" d="M54.15625,0 81.3125,0 a9,9 0 0,1 0,18 L54.1875,18 a9,9 0 0,1 0,-18"></path><text fill="#FF0" x="54.1875" y="14" font-family="monospace" font-size="15">two</text><path fill="#CB0000" d="M99.3125,0 144.53125,0 a9,9 0 0,1 0,18 L99.34375,18 a9,9 0 0,1 0,-18"></path><text fill="#FF0" x="99.34375" y="14" font-family="monospace" font-size="15">three</text><path fill="#CB0000" d="M162.53125,0 198.71875,0 a9,9 0 0,1 0,18 L162.5625,18 a9,9 0 0,1 0,-18"></path><text fill="#FF0" x="162.5625" y="14" font-family="monospace" font-size="15">four</text><path fill="#CB0000" d="M216.71875,0 252.90625,0 a9,9 0 0,1 0,18 L216.75,18 a9,9 0 0,1 0,-18"></path><text fill="#FF0" x="216.75" y="14" font-family="monospace" font-size="15">five</text></svg>
